<svg xmlns="http://www.w3.org/2000/svg" xmlns:xlink="http://www.w3.org/1999/xlink" width="156.85" height="123.439" viewBox="0 0 156.85 123.439"><defs><path id="a" d="M0 0h156.85v123.439H0z"/></defs><clipPath id="b"><use xlink:href="#a" overflow="visible"/></clipPath><path d="M47.337 80.704v16.602c-.164 4.931-1.151 9.368-2.958 13.148-1.48 3.288-3.781 6.41-7.068 8.876-3.287 2.631-7.725 4.109-13.643 4.109-5.917 0-10.519-1.479-13.806-4.109-3.288-2.466-5.424-5.588-6.904-8.876C1.15 106.673.164 102.236 0 97.305V26.134c.164-4.766 1.15-9.204 2.958-12.984 1.48-3.288 3.616-6.575 6.904-9.041C13.149 1.644 17.751 0 23.668 0c5.918 0 10.356 1.644 13.643 4.109 3.287 2.466 5.588 5.753 7.068 9.041 1.807 3.78 2.794 8.218 2.958 12.984v16.601H30.736V26.134c0-3.287-.822-5.588-2.63-7.56-.821-.822-2.301-1.315-4.109-1.315-3.123 0-4.602 2.301-5.424 4.438-.493 1.315-.657 2.794-.822 4.437v71.171c.165 3.452 1.151 5.753 2.794 7.561.822.822 1.973 1.315 3.452 1.315 3.781 0 5.26-1.974 6.081-4.438.494-1.15.658-2.63.658-4.438V80.704h16.601zm27.496-21.532l-1.479-5.589h-.986v68.542H56.095V1.315h15.78l17.258 62.952 1.479 5.589h.986V1.315h16.273v120.81H92.092zm45.238-57.857h17.751v120.809h-17.751zm32.184 113.924c0-.435-.085-.771-.253-1.008-.168-.237-.479-.356-.934-.356h-.712v2.639h.801c.415 0 .701-.118.859-.355s.239-.544.239-.92m.089 5.454l-1.127-3.231h-.86v3.231h-1.097v-7.826h1.927c1.442 0 2.164.791 2.164 2.372 0 .415-.074.81-.222 1.185-.149.376-.431.673-.846.891.197.553.405 1.116.623 1.689s.435 1.136.652 1.689h-1.214zm-1.098-9.574c-.771 0-1.442.143-2.016.429a4.083 4.083 0 0 0-1.438 1.187 5.121 5.121 0 0 0-.859 1.777 8.179 8.179 0 0 0-.282 2.18c0 .811.104 1.547.312 2.209s.504 1.239.889 1.733c.386.494.865.874 1.438 1.142.572.267 1.226.399 1.956.399.771 0 1.442-.143 2.017-.43a4.017 4.017 0 0 0 1.422-1.17 4.963 4.963 0 0 0 .83-1.735c.177-.662.267-1.378.267-2.148s-.099-1.497-.296-2.18c-.197-.681-.489-1.273-.875-1.777s-.859-.899-1.423-1.187c-.564-.287-1.21-.429-1.942-.429m0 12.093c-.93 0-1.744-.163-2.445-.489a4.905 4.905 0 0 1-1.764-1.363 6.118 6.118 0 0 1-1.082-2.045c-.247-.781-.37-1.636-.37-2.564 0-.949.123-1.823.37-2.624.247-.8.607-1.491 1.082-2.075a4.903 4.903 0 0 1 1.764-1.362c.701-.326 1.516-.489 2.445-.489.89 0 1.685.163 2.387.489.7.325 1.289.78 1.764 1.362.475.584.834 1.275 1.082 2.075.246.801.371 1.675.371 2.624 0 .929-.125 1.783-.371 2.564a6.137 6.137 0 0 1-1.082 2.045 4.914 4.914 0 0 1-1.764 1.363c-.702.326-1.497.489-2.387.489" clip-path="url(#b)"/></svg>