<svg data-name="Layer 1" xmlns="http://www.w3.org/2000/svg" viewBox="0 0 86.81 6.31"><title>insight</title><path fill="#fff" d="M9.14.1h1.57v6.1H9.14zm7 6.1l-2.58-3.53V6.2h-1.57V.1h1.62l2.47 3.36V.1h1.58v6.1h-1.52zm2.37-.86l.83-1.18a2.75 2.75 0 0 0 1.95.8c.54 0 .87-.21.87-.5 0-.83-3.46-.17-3.46-2.51 0-1 .87-1.94 2.43-1.94a3.72 3.72 0 0 1 2.48.85l-.86 1.13a2.87 2.87 0 0 0-1.78-.63c-.46 0-.66.18-.66.44 0 .78 3.45.21 3.45 2.48 0 1.23-.91 2-2.54 2a3.73 3.73 0 0 1-2.71-1M24.7.1h1.57v6.1H24.7zm2.54 3.06a3.11 3.11 0 0 1 3.3-3.15 2.85 2.85 0 0 1 2.61 1.48l-1.32.69a1.51 1.51 0 0 0-1.29-.78 1.77 1.77 0 0 0 0 3.53 1.93 1.93 0 0 0 1.13-.37v-.52h-1.38V2.66h2.94v2.42a3.52 3.52 0 0 1-2.7 1.19 3.11 3.11 0 0 1-3.3-3.16M38.48 6.2V3.75h-2.53V6.2h-1.57V.1h1.57v2.28h2.53V.1h1.58v6.1h-1.58zm4.05 0V1.47h-1.71V.1h4.98v1.37h-1.7V6.2h-1.57zm9.36-4.54l-.78 2.29h1.56zM53.4 6.2l-.3-.88h-2.4l-.3.88h-1.8L50.89.1h2l2.3 6.1h-1.78zm1.83-3.04a3.11 3.11 0 0 1 3.3-3.15 2.84 2.84 0 0 1 2.61 1.48l-1.32.69a1.51 1.51 0 0 0-1.29-.78 1.77 1.77 0 0 0 0 3.53 1.93 1.93 0 0 0 1.13-.37v-.52h-1.37V2.66h2.94v2.42a3.52 3.52 0 0 1-2.7 1.19 3.11 3.11 0 0 1-3.3-3.16m7.14 3.09V.1h4.48v1.37h-2.9v.95h2.83v1.37h-2.83v1.04h2.9V6.2h-4.48zm9.82 0l-2.58-3.53V6.2h-1.58V.1h1.62l2.47 3.36V.1h1.58v6.1h-1.51zm2.48-3.04A3.11 3.11 0 0 1 77.98.04a2.81 2.81 0 0 1 2.66 1.64l-1.35.64a1.46 1.46 0 0 0-1.31-.89 1.77 1.77 0 0 0 0 3.53 1.47 1.47 0 0 0 1.31-.89l1.35.64a2.83 2.83 0 0 1-2.66 1.64 3.12 3.12 0 0 1-3.3-3.16m8.25 3.01V3.74L80.62.1h1.77l1.33 2.25L85.03.1h1.78l-2.3 3.64V6.2h-1.58zM6.18 3.11A3.09 3.09 0 1 1 3.09.04a3.09 3.09 0 0 1 3.09 3.09"/></svg>