<svg xmlns="http://www.w3.org/2000/svg" viewBox="0 0 32.41 53.97"><defs><style>.cls-1{fill-rule:evenodd}</style></defs><title>Ресурс 7</title><g id="Слой_2" data-name="Слой 2"><g id="Layer_1" data-name="Layer 1"><path class="cls-1" fill="#fff" d="M13.55 38c-4.18-.44-8-1.47-11.19-4-.4-.31-.81-.62-1.18-1a3.17 3.17 0 0 1-.44-4.52 3.2 3.2 0 0 1 4.23-1 6.73 6.73 0 0 1 .93.55 18.34 18.34 0 0 0 20.33.19 5.51 5.51 0 0 1 2-1 3.11 3.11 0 0 1 3.56 1.42 3 3 0 0 1-.22 4 16.47 16.47 0 0 1-5.91 3.82A27.9 27.9 0 0 1 18.93 38c.35.38.51.56.73.78 3.1 3.13 6.23 6.22 9.34 9.37a3.09 3.09 0 0 1 .7 3.63 3.69 3.69 0 0 1-3.45 2.15A3.36 3.36 0 0 1 24 52.82c-2.35-2.36-4.73-4.68-7-7.08-.67-.7-1-.57-1.58 0-2.36 2.43-4.76 4.82-7.17 7.2a3 3 0 0 1-3.63.65 3.66 3.66 0 0 1-2.12-3.38A3.37 3.37 0 0 1 3.65 48q4.61-4.6 9.21-9.22c.2-.2.39-.42.69-.74zm0 0"/><path class="cls-1" fill="#fff" d="M16.1 27.32a13.66 13.66 0 1 1 13.74-13.48A13.67 13.67 0 0 1 16.1 27.32zm6.78-13.67a6.68 6.68 0 1 0-6.64 6.7 6.65 6.65 0 0 0 6.64-6.7zm0 0"/></g></g></svg>