<svg xmlns="http://www.w3.org/2000/svg" width="382" height="472" viewBox="0 0 382 472"><path d="M90.133 147.083v30.087c-.298 8.937-2.085 16.979-5.362 23.831-2.681 5.958-6.851 11.618-12.809 16.086-5.958 4.766-14 7.447-24.725 7.447s-19.065-2.681-25.022-7.447c-5.958-4.468-9.831-10.128-12.511-16.086-3.277-6.852-5.064-14.895-5.362-23.831V48.184c.298-8.639 2.085-16.682 5.362-23.533 2.681-5.958 6.553-11.916 12.511-16.384C28.172 3.799 36.513.82 47.237.82s18.767 2.979 24.725 7.447c5.958 4.468 10.128 10.426 12.809 16.384 3.277 6.851 5.064 14.895 5.362 23.533V78.27H60.046V48.184c0-5.958-1.489-10.128-4.766-13.703-1.489-1.489-4.17-2.383-7.447-2.383-5.66 0-8.341 4.17-9.83 8.043-.894 2.383-1.191 5.064-1.49 8.043v128.985c.298 6.255 2.085 10.426 5.064 13.703 1.489 1.49 3.574 2.383 6.255 2.383 6.852 0 9.533-3.575 11.022-8.043.894-2.085 1.191-4.766 1.191-8.043v-30.087h30.088zm55.893-39.024l-2.681-10.128h-1.787V222.15h-29.491V3.203h28.597l31.278 114.091 2.681 10.128h1.788V3.203h29.491V222.15h-28.597l-31.279-114.091zM238.835 3.203h32.172V222.15h-32.172V3.203zM60.441 308.467c0-7.149-.298-15.192-2.383-21.448-2.085-5.958-5.362-10.128-10.426-10.128-8.341.298-11.022 8.937-11.022 21.746 0 7.447 3.277 15.192 8.043 23.533s11.022 16.979 17.277 26.214c7.447 11.022 14.895 22.342 20.554 33.364 5.66 11.022 9.533 22.341 9.533 34.257 0 14.597-2.383 28.299-9.235 38.428-6.851 10.128-17.873 16.682-35.448 16.682-20.555 0-32.172-7.745-38.726-19.661S.565 423.75.565 407.367l31.576-2.979c0 9.235.298 18.469 2.681 25.321 2.085 7.149 5.66 11.915 12.511 11.915 9.532 0 13.107-10.128 13.107-24.128 0-7.149-3.575-15.49-8.341-24.129-2.681-4.17-5.362-8.639-8.341-13.107-6.256-8.937-13.107-19.064-20.256-30.086s-12.51-22.344-15.787-33.962c-1.788-5.66-2.681-11.617-2.681-17.575 0-11.916 2.681-24.725 9.533-34.555 6.851-9.533 17.277-16.384 32.47-16.682 19.362-.298 30.682 7.745 36.938 19.363 6.255 11.916 8.043 26.512 8.043 38.726l-31.577 2.978zm52.319-58.684h73.579v33.065h-41.407v57.492h29.789v35.151h-29.789v60.173h41.407v33.065H112.76V249.783zm88.08 33.066v-33.065h92.941v33.065h-30.384V468.73h-32.172V282.849H200.84zm149.154 25.618c0-7.149-.298-15.192-2.383-21.448-2.085-5.958-5.362-10.128-10.426-10.128-8.341.298-11.021 8.937-11.021 21.746 0 7.447 3.276 15.192 8.043 23.533 4.766 8.341 11.021 16.979 17.277 26.214 7.447 11.022 14.895 22.342 20.554 33.364 5.66 11.022 9.533 22.341 9.533 34.257 0 14.597-2.383 28.299-9.235 38.428-6.851 10.128-17.873 16.682-35.449 16.682-20.554 0-32.172-7.745-38.725-19.661-6.554-11.916-8.043-27.704-8.043-44.087l31.576-2.979c0 9.235.298 18.469 2.681 25.321 2.085 7.149 5.66 11.915 12.511 11.915 9.533 0 13.107-10.128 13.107-24.128 0-7.149-3.575-15.49-8.341-24.129-2.681-4.17-5.362-8.639-8.341-13.107a1034.75 1034.75 0 0 1-20.257-30.086c-7.149-11.022-12.511-22.342-15.788-33.959-1.788-5.66-2.681-11.617-2.681-17.575 0-11.916 2.681-24.725 9.532-34.555 6.852-9.533 17.278-16.384 32.47-16.682 19.363-.298 30.683 7.745 36.938 19.363 6.255 11.916 8.043 26.512 8.043 38.726l-31.575 2.975z"/></svg>