<svg xmlns="http://www.w3.org/2000/svg" viewBox="0 0 56.95 32.23"><defs><style>.cls-1{fill-rule:evenodd}</style></defs><title>Ресурс 4</title><g id="Слой_2" data-name="Слой 2"><path class="cls-1" fill="#fff" d="M49 20.49a77.48 77.48 0 0 1 5.58 5.61 16.26 16.26 0 0 1 2 2.88c.77 1.49.07 3.13-1.26 3.22H47a6.4 6.4 0 0 1-5.25-2.2c-1.15-1.17-2.21-2.42-3.32-3.63a7.84 7.84 0 0 0-1.49-1.33 1.73 1.73 0 0 0-2.76.67 8.72 8.72 0 0 0-.87 3.87c-.09 2-.68 2.47-2.64 2.56a21.22 21.22 0 0 1-11.87-2.55 26.24 26.24 0 0 1-8-7.48A100.72 100.72 0 0 1 .29 3.42c-.67-1.47-.18-2.27 1.45-2.3 2.71-.05 5.41 0 8.12 0a2.39 2.39 0 0 1 2.25 1.69A50.37 50.37 0 0 0 17.62 13a8.71 8.71 0 0 0 2.08 2.3 1.26 1.26 0 0 0 2.15-.63 7.09 7.09 0 0 0 .48-2.14A31.93 31.93 0 0 0 22.19 5a3.13 3.13 0 0 0-2.66-2.86c-.79-.15-.68-.44-.29-.9A3 3 0 0 1 21.78 0h9.38c1.48.29 1.8 1 2 2.44v10.41c0 .58.29 2.28 1.32 2.66.83.27 1.38-.39 1.87-.92a32.31 32.31 0 0 0 5.28-8.11c.64-1.28 1.18-2.61 1.71-3.94a2 2 0 0 1 2.12-1.45h9a4.72 4.72 0 0 1 .8 0c1.52.26 1.94.91 1.47 2.4a22.53 22.53 0 0 1-3.59 6.22c-1.5 2.08-3.11 4.09-4.61 6.19-1.37 1.91-1.26 2.88.44 4.54zm0 0" id="Layer_1" data-name="Layer 1"/></g></svg>