<svg xmlns="http://www.w3.org/2000/svg" viewBox="0 0 44.06 52.87"><title>Ресурс 6</title><g data-name="Слой 2"><path fill="#fff" d="M37.27 38.67h-2.9V37a1.37 1.37 0 0 1 1.37-1.36h.19A1.37 1.37 0 0 1 37.3 37zm-10.89-3.61a1.24 1.24 0 0 0-1.38 1.1v8.19a1.37 1.37 0 0 0 2.68 0v-8.19a1.24 1.24 0 0 0-1.34-1.1zm17.67-4.58v15.59a7 7 0 0 1-7.21 6.8H7.21A7 7 0 0 1 0 46.07v-15.6a7 7 0 0 1 7.21-6.8h29.64a7 7 0 0 1 7.21 6.8zM9.18 47.76V31.34h3.67V28.9H3.06v2.39h3.06v16.47zm11-14h-3.05v8.77a16 16 0 0 1 0 2.13c-.25.68-1.37 1.4-1.81.07a17.77 17.77 0 0 1 0-2.14v-8.81h-3v11.47c.07.8 0 1.73.79 2.26 1.38 1 4-.15 4.68-1.57v1.81h2.41v-14zm9.8 10v-7.3c0-2.78-2.09-4.45-4.91-2.2V28.9H22v18.74h2.52l.23-1.17c3.22 3 5.24.93 5.23-2.61zm9.59-1h-2.3v1.59A1.25 1.25 0 0 1 36 45.7h-.45a1.25 1.25 0 0 1-1.26-1.24v-3.37h5.26v-2a31.85 31.85 0 0 0-.15-3.72c-.38-2.62-4-3-5.91-1.69a3.45 3.45 0 0 0-1.28 1.73 9.73 9.73 0 0 0-.39 3.09v4.35c0 7.24 8.79 6.21 7.74 0zM27.8 19.23a2.08 2.08 0 0 0 .74.93 2.12 2.12 0 0 0 1.25.35 1.94 1.94 0 0 0 1.21-.37 2.83 2.83 0 0 0 .86-1.1l-.06 1.2h3.42V5.72H32.5V17a1.12 1.12 0 0 1-2.24 0V5.72h-2.8v9.8c0 1.25 0 2.08.06 2.5a4.21 4.21 0 0 0 .29 1.21zM17.46 11a12.16 12.16 0 0 1 .35-3.27 3.5 3.5 0 0 1 3.57-2.6 4.23 4.23 0 0 1 2 .46 3.35 3.35 0 0 1 1.31 1.19 4.75 4.75 0 0 1 .63 1.51 12.27 12.27 0 0 1 .17 2.38v3.67a20.13 20.13 0 0 1-.16 3 4.66 4.66 0 0 1-.67 1.76 3.17 3.17 0 0 1-1.31 1.21 4.15 4.15 0 0 1-1.85.39 5.09 5.09 0 0 1-2-.33 2.69 2.69 0 0 1-1.26-1 4.49 4.49 0 0 1-.64-1.63 15.67 15.67 0 0 1-.19-2.86zm2.67 5.77a1.36 1.36 0 1 0 2.71 0V9.06a1.36 1.36 0 1 0-2.71 0zm-9.45 3.9h3.22V9.56L17.71 0h-3.52l-2 7.08L10.11 0H6.63l4.05 9.57zm0 0" data-name="Layer 1"/></g></svg>