<svg xmlns="http://www.w3.org/2000/svg" viewBox="0 0 46.33 46.33"><title>Ресурс 5</title><g data-name="Слой 2"><path fill="#fff" d="M5.95 0h34.44a6 6 0 0 1 5.95 5.95v34.43a6 6 0 0 1-5.95 5.94H5.95A6 6 0 0 1 0 40.38V5.95A6 6 0 0 1 5.95 0zm27.8 5.15a2.09 2.09 0 0 0-2.09 2.09v5a2.09 2.09 0 0 0 2.09 2.09H39a2.09 2.09 0 0 0 2.09-2.09v-5A2.09 2.09 0 0 0 39 5.15zm7.34 14.45H37a13.54 13.54 0 0 1 .6 4 14.19 14.19 0 0 1-14.4 14 14.19 14.19 0 0 1-14.4-14 13.61 13.61 0 0 1 .6-4H5.15v19.56A1.84 1.84 0 0 0 7 41h32.25a1.84 1.84 0 0 0 1.84-1.84zM23.21 14a9.16 9.16 0 0 0-9.3 9 9.16 9.16 0 0 0 9.3 9 9.17 9.17 0 0 0 9.31-9 9.16 9.16 0 0 0-9.31-9zm0 0" data-name="Layer 1"/></g></svg>