<svg xmlns="http://www.w3.org/2000/svg" width="12.141" height="21.441" viewBox="0 0 12.141 21.441"><path d="M10.582 0H1.559C.695 0 0 .7 0 1.563v18.316c0 .863.695 1.562 1.559 1.562h9.023c.859 0 1.559-.699 1.559-1.562V1.563A1.56 1.56 0 0 0 10.582 0zM3.844.95h4.453c.113 0 .203.168.203.375 0 .211-.09.379-.203.379H3.844c-.114 0-.203-.168-.203-.379 0-.207.089-.375.203-.375zM6.07 19.898a.997.997 0 0 1-.996-.996.997.997 0 0 1 1.993 0 .996.996 0 0 1-.997.996zm4.903-3.414H1.168V2.637h9.805v13.847zm0 0" fill="#fff"/></svg>