<svg xmlns="http://www.w3.org/2000/svg" width="34" height="10" viewBox="0 0 34 10"><path d="M2.243 3.081c0-.264-.011-.561-.088-.792-.077-.22-.198-.374-.385-.374-.308.011-.407.33-.407.803 0 .275.121.561.297.869.176.308.407.627.638.968.275.407.55.825.759 1.232s.352.825.352 1.265c0 .539-.088 1.045-.341 1.419-.253.375-.66.616-1.309.616C1 9.088.57 8.802.329 8.362.087 7.922.032 7.339.032 6.734l1.166-.11c0 .341.011.682.099.935.077.264.209.44.462.44.352 0 .484-.374.484-.891 0-.264-.132-.572-.308-.891-.1-.155-.198-.32-.309-.485a38.18 38.18 0 0 1-.748-1.111 4.642 4.642 0 0 1-.583-1.254 2.16 2.16 0 0 1-.099-.649c0-.44.099-.913.352-1.276.253-.352.639-.605 1.2-.616.715-.011 1.133.286 1.364.715.231.44.297.979.297 1.43l-1.166.11zm7.322 3.147v1.111c-.011.33-.077.627-.198.88-.099.22-.253.429-.473.594-.22.176-.518.275-.914.275s-.704-.099-.923-.275a1.483 1.483 0 0 1-.462-.594 2.203 2.203 0 0 1-.198-.88V2.575c.011-.319.077-.616.198-.869.099-.22.242-.44.462-.605.22-.165.528-.275.924-.275s.693.11.913.275c.22.165.374.385.473.605.121.253.187.55.198.869v1.111H8.454V2.575c0-.22-.055-.374-.176-.506-.055-.055-.154-.088-.276-.088-.209 0-.308.154-.363.297-.033.088-.043.187-.055.297v4.764c.012.231.078.385.187.506a.318.318 0 0 0 .231.088c.253 0 .352-.132.407-.297a.749.749 0 0 0 .045-.297V6.228h1.111zM14.797 9l-.616-3.411h-.319V9h-1.188V.914h1.188c1.419 0 2.024.803 2.024 2.333 0 .803-.209 1.529-.66 1.837L15.985 9h-1.188zm-.935-4.511c.165 0 .385-.022.561-.176.176-.154.319-.451.319-1.023 0-.572-.143-.88-.319-1.034-.176-.154-.396-.165-.561-.165v2.398zm8.103 2.85c-.011.33-.077.627-.198.88-.099.22-.253.429-.473.594-.22.176-.517.275-.913.275s-.704-.099-.924-.275a1.483 1.483 0 0 1-.462-.594 2.203 2.203 0 0 1-.198-.88V2.575c.011-.319.077-.616.198-.869.099-.22.242-.44.462-.605.22-.165.528-.275.924-.275s.693.11.913.275c.22.165.375.385.473.605.121.253.187.55.198.869v4.764zm-1.188-4.764c0-.22-.044-.374-.154-.506a.342.342 0 0 0-.242-.088c-.209 0-.308.154-.352.297a.847.847 0 0 0-.044.297v4.764c0 .231.055.385.165.506a.315.315 0 0 0 .231.088c.209 0 .308-.132.353-.297a.769.769 0 0 0 .044-.297V2.575zM25.073.914h1.188V7.9h1.573V9h-2.762V.914zm5.2 0h1.188V7.9h1.573V9h-2.761V.914z" fill="#fff"/></svg>