<svg xmlns="http://www.w3.org/2000/svg" viewBox="0 0 55.21 45.2"><title>Ресурс 8</title><g data-name="Слой 2"><path fill="#fff" d="M54 5.22a21 21 0 0 1-2.67 1A11.81 11.81 0 0 0 53.69 2a.89.89 0 0 0-1.3-1 21 21 0 0 1-6.21 2.46A11.86 11.86 0 0 0 26 11.85a12.12 12.12 0 0 0 .1 1.53A30.35 30.35 0 0 1 5.3 2.33a.89.89 0 0 0-1.46.11 11.87 11.87 0 0 0 1.22 13.65 10.12 10.12 0 0 1-1.59-.71.89.89 0 0 0-1.32.76v.16a11.89 11.89 0 0 0 5.8 10.19q-.45 0-.9-.13a.89.89 0 0 0-1 1.15 11.85 11.85 0 0 0 8.68 7.94 21 21 0 0 1-11.21 3.2A21.32 21.32 0 0 1 1 38.5a.89.89 0 0 0-.59 1.63 32 32 0 0 0 17.28 5.07 30.75 30.75 0 0 0 23.83-10.46 33.16 33.16 0 0 0 8.26-21.61v-1a23 23 0 0 0 5.3-5.62A.89.89 0 0 0 54 5.22zm0 0" data-name="Layer 1"/></g></svg>