<svg xmlns="http://www.w3.org/2000/svg" width="690.505" height="503.85" viewBox="0 0 690.505 503.85"><defs><style>.cls-1{fill:#040407;fill-rule:evenodd}</style></defs><path id="you" class="cls-1" d="M684.208 1381.07l2.013 4.7h1.341l2.013-4.7 36.225-157.66h71.113l-73.8 283.11v209.99h-72.449v-209.99l-73.8-283.11h71.113zm341.232 234.13c-.67 20.13-4.7 38.24-12.08 53.67a92.293 92.293 0 0 1-28.846 36.23c-13.418 10.74-31.531 16.77-55.683 16.77s-42.936-6.03-56.354-16.77c-13.417-10.06-22.139-22.81-28.176-36.23-7.38-15.43-11.405-33.54-12.076-53.67v-290.48c.671-19.46 4.7-37.57 12.076-53 6.037-13.42 14.759-26.84 28.176-36.9s32.2-16.77 56.354-16.77 42.265 6.7 55.683 16.77 22.806 23.48 28.846 36.9c7.38 15.43 11.41 33.54 12.08 53v290.48zm-72.457-290.48c0-13.42-2.684-22.81-9.393-30.86-3.354-3.36-8.721-5.37-14.759-5.37-12.747 0-18.785 9.39-21.468 18.11-2.013 5.37-2.684 11.41-2.684 18.12v290.48c0 14.09 3.355 23.49 10.064 30.87 3.354 3.35 8.05 5.36 14.088 5.36 12.747 0 18.784-8.05 21.468-18.11 2.013-4.7 2.684-10.74 2.684-18.12v-290.48zm314.4-101.31v391.79c-.67 20.13-4.7 38.24-12.08 53.67a92.277 92.277 0 0 1-28.85 36.23c-13.41 10.74-31.53 16.77-55.68 16.77s-42.94-6.03-56.35-16.77c-13.42-10.06-22.14-22.81-28.18-36.23-7.38-15.43-11.4-33.54-12.08-53.67v-391.79h72.46v391.79c0 14.09 3.35 23.49 10.06 30.87 3.36 3.35 8.05 5.36 14.09 5.36 12.75 0 18.79-8.05 21.47-18.11 2.01-4.7 2.68-10.74 2.68-18.12v-391.79h72.46z" transform="translate(-576.875 -1218.03)"/></svg>